<svg width="192" height="192" viewBox="0 0 192 192" fill="none" xmlns="http://www.w3.org/2000/svg">
<g clip-path="url(#clip0_56_366)">
<path d="M0 152.919V39.0815H36.5905C48.0826 39.0815 57.8943 41.1414 66.0255 45.2612C74.1567 49.2726 80.3364 55.3439 84.5647 63.4751C88.9013 71.4979 91.0697 81.5264 91.0697 93.5606V96.8131C91.0697 108.956 88.8471 119.201 84.4021 127.549C79.957 135.897 73.5062 142.24 65.0498 146.576C56.7017 150.804 46.6732 152.919 34.9642 152.919H0ZM19.5149 136.006H33.338C40.8187 136.006 47.3237 134.759 52.8529 132.265C58.4906 129.663 62.8272 125.489 65.8629 119.743C69.007 113.997 70.579 106.354 70.579 96.8131V93.5606C70.579 84.6705 69.007 77.4608 65.8629 71.9316C62.7188 66.4024 58.4364 62.391 53.0156 59.8974C47.7032 57.2954 41.6861 55.9944 34.9642 55.9944H19.5149V136.006Z" fill="#BFBFC0"/>
<path d="M105.809 152.919V39.0815H147.278C157.469 39.0815 165.872 40.5993 172.485 43.6349C179.099 46.5622 183.977 50.7362 187.121 56.157C190.374 61.5778 192 67.9744 192 75.3467C192 82.719 190.374 89.1156 187.121 94.5364C183.977 99.9572 179.099 104.185 172.485 107.221C165.872 110.148 157.469 111.612 147.278 111.612H125.324V152.919H105.809ZM125.324 94.699H145.652C155.952 94.699 162.999 93.127 166.793 89.9829C170.588 86.7304 172.485 81.8517 172.485 75.3467C172.485 68.9501 170.588 64.1256 166.793 60.8731C162.999 57.6206 155.952 55.9944 145.652 55.9944H125.324V94.699Z" fill="#BFBFC0"/>
</g>
<defs>
<clipPath id="clip0_56_366">
<rect width="192" height="192" fill="white"/>
</clipPath>
</defs>
</svg>
